<?xml version="1.0" encoding="UTF-8" standalone="no"?>
<svg width="40" height="40" viewBox="0 0 40 40" fill="none" xmlns="http://www.w3.org/2000/svg">
  <rect width="40" height="40" rx="8" fill="#E5E7EB"/>
  <path d="M20 12C15.5817 12 12 15.5817 12 20C12 24.4183 15.5817 28 20 28C24.4183 28 28 24.4183 28 20C28 15.5817 24.4183 12 20 12ZM20 26C16.6863 26 14 23.3137 14 20C14 16.6863 16.6863 14 20 14C23.3137 14 26 16.6863 26 20C26 23.3137 23.3137 26 20 26Z" fill="#9CA3AF"/>
  <path d="M20 16C18.3431 16 17 17.3431 17 19C17 20.6569 18.3431 22 20 22C21.6569 22 23 20.6569 23 19C23 17.3431 21.6569 16 20 16Z" fill="#9CA3AF"/>
</svg>
